<svg width="45" height="46" viewBox="0 0 45 46" fill="none" xmlns="http://www.w3.org/2000/svg">
<g id="SVG" clip-path="url(#clip0_1_495)">
<path id="Vector" d="M32.5066 22.3847L23.7176 1.20308C23.5134 0.7108 23.0328 0.389999 22.4999 0.389999C21.9671 0.389999 21.4865 0.7108 21.2823 1.20308L12.4932 22.3847C12.359 22.7082 12.359 23.0718 12.4932 23.3953L21.2823 44.5769C21.4865 45.0692 21.9671 45.39 22.4999 45.39C23.0328 45.39 23.5134 45.0692 23.7176 44.5769L32.5066 23.3953C32.6409 23.0718 32.6409 22.7082 32.5066 22.3847ZM22.4999 40.6317L15.1382 22.89L22.4999 5.14831L29.8617 22.89L22.4999 40.6317Z" fill="white"/>
<path id="Vector_2" opacity="0.139112" d="M4.70364 3.22924L-0.833474 -2.30787C-1.34834 -2.82265 -2.18312 -2.82265 -2.6979 -2.30787C-3.21276 -1.79301 -3.21276 -0.958224 -2.6979 -0.443449L2.83921 5.09366C3.09655 5.35109 3.43397 5.47985 3.77138 5.47985C4.10879 5.47985 4.4462 5.35109 4.70364 5.09366C5.21859 4.5788 5.21859 3.74401 4.70364 3.22924Z" fill="white"/>
<path id="Vector_3" opacity="0.139112" d="M47.6979 -2.30787C47.183 -2.82265 46.3483 -2.82265 45.8335 -2.30787L40.2964 3.22924C39.7815 3.7441 39.7815 4.57888 40.2964 5.09366C40.5537 5.35109 40.8911 5.47985 41.2285 5.47985C41.5659 5.47985 41.9034 5.35109 42.1608 5.09366L47.6979 -0.443449C48.2128 -0.958312 48.2128 -1.7931 47.6979 -2.30787Z" fill="white"/>
<path id="Vector_4" opacity="0.139112" d="M4.70364 40.6863C4.18877 40.1715 3.35399 40.1715 2.83921 40.6863L-2.6979 46.2234C-3.21276 46.7382 -3.21276 47.573 -2.6979 48.0878C-2.44047 48.3452 -2.10314 48.474 -1.76573 48.474C-1.42832 48.474 -1.09091 48.3452 -0.833474 48.0878L4.70364 42.5507C5.21859 42.0358 5.21859 41.201 4.70364 40.6863Z" fill="white"/>
<path id="Vector_5" opacity="0.139112" d="M47.6979 46.2234L42.1608 40.6863C41.6459 40.1715 40.8111 40.1715 40.2964 40.6863C39.7815 41.2011 39.7815 42.0359 40.2964 42.5507L45.8335 48.0878C46.0908 48.3452 46.4282 48.474 46.7656 48.474C47.1031 48.474 47.4405 48.3452 47.6979 48.0878C48.2128 47.5729 48.2128 46.7381 47.6979 46.2234Z" fill="white"/>
</g>
<defs>
<clipPath id="clip0_1_495">
<rect width="45" height="45" fill="white" transform="translate(0 0.389999)"/>
</clipPath>
</defs>
</svg>
